<svg xmlns="http://www.w3.org/2000/svg" width="1400" height="900" viewBox="0 0 1400 900">
  <title>ARGO KOP Repository Phase 1 Status — 2026-08-10</title>
  <desc>Directional repository status diagram. The 34.2 percent figure is historical and not canonical progress.</desc>
  <rect width="1400" height="900" fill="#ffffff"/>
  <text x="70" y="70" font-family="Arial, sans-serif" font-size="34" font-weight="700">ARGO KOP — Repository Phase 1 Status</text>
  <text x="70" y="110" font-family="Arial, sans-serif" font-size="20">Audit date: 2026-08-10 | Development Baseline: 3.3.0</text>

  <rect x="70" y="155" width="1260" height="145" rx="18" fill="#f4f4f4" stroke="#222" stroke-width="2"/>
  <text x="105" y="205" font-family="Arial, sans-serif" font-size="24" font-weight="700">Current Phase 1 State</text>
  <text x="105" y="250" font-family="Arial, sans-serif" font-size="30" font-weight="700">OPEN • PARTIALLY RECONCILED • INTEGRITY HOLD</text>
  <text x="105" y="282" font-family="Arial, sans-serif" font-size="17">Closure is not claimed. Registry presence does not equal validation or semantic correctness.</text>

  <text x="70" y="365" font-family="Arial, sans-serif" font-size="24" font-weight="700">Directional Progress Indicator</text>
  <rect x="70" y="390" width="900" height="48" rx="24" fill="#eeeeee" stroke="#222"/>
  <rect x="70" y="390" width="308" height="48" rx="24" fill="#777777"/>
  <text x="1000" y="425" font-family="Arial, sans-serif" font-size="28" font-weight="700">34.2%</text>
  <text x="70" y="470" font-family="Arial, sans-serif" font-size="16">Historical / directional only — retained for context; not a canonical completion percentage.</text>

  <text x="70" y="535" font-family="Arial, sans-serif" font-size="23" font-weight="700">Control Plane Coverage View</text>
  <g font-family="Arial, sans-serif" font-size="18">
    <text x="80" y="580">REP-011 Review Traceability</text><rect x="430" y="558" width="650" height="30" fill="#eeeeee"/><rect x="430" y="558" width="325" height="30" fill="#888888"/><text x="1100" y="581">Partial</text>
    <text x="80" y="630">REP-012 Allocation / Recovery</text><rect x="430" y="608" width="650" height="30" fill="#eeeeee"/><rect x="430" y="608" width="390" height="30" fill="#888888"/><text x="1100" y="631">Partial</text>
    <text x="80" y="680">REP-013 Content Inventory</text><rect x="430" y="658" width="650" height="30" fill="#eeeeee"/><rect x="430" y="658" width="195" height="30" fill="#888888"/><text x="1100" y="681">Partial</text>
    <text x="80" y="730">REP-014 Relationships</text><rect x="430" y="708" width="650" height="30" fill="#eeeeee"/><rect x="430" y="708" width="225" height="30" fill="#888888"/><text x="1100" y="731">Partial</text>
    <text x="80" y="780">REP-015 / REP-016 Bootstrap & Queue</text><rect x="430" y="758" width="650" height="30" fill="#eeeeee"/><rect x="430" y="758" width="390" height="30" fill="#888888"/><text x="1100" y="781">Scope-reconciled</text>
  </g>

  <text x="70" y="845" font-family="Arial, sans-serif" font-size="15">Source: repository control-plane evidence and recorded audit history. Do not infer canonical completion from this graphic alone.</text>
</svg>